<svg xmlns="http://www.w3.org/2000/svg" viewBox="0 0 925.03 237.35">
    <g style="isolation:isolate">
        <g id="Layer_2" data-name="Layer 2">
            <g id="Layer_1-2" data-name="Layer 1">
                <path d="M410.06,209.79h-384a24.07,24.07,0,0,1-24-24V3.79" style="fill:#fff"/>
                <path d="M410.06,210l-150.91.8-150.92.6-75.46.38H28.06c-.8,0-1.55,0-2.39,0s-1.71-.05-2.55-.15a25.62,25.62,0,0,1-9.68-3.09A26.21,26.21,0,0,1,1,192.92a27,27,0,0,1-.9-5c0-.83-.11-1.74-.1-2.52V173.57l0-18.86C.43,104.4.72,54.1,1.86,3.79h.4C3.41,54.1,3.7,104.4,4.06,154.71l0,18.86,0,9.43v2.36c0,.79.07,1.46.09,2.19A22.51,22.51,0,0,0,5,191.78,22.28,22.28,0,0,0,15.42,205a21.62,21.62,0,0,0,8.15,2.66c.72.09,1.44.09,2.16.14s1.55,0,2.33,0h4.71l75.46.38,150.92.6,150.91.8Z"/>
                <path d="M428.06,235.79H7.15a5.1,5.1,0,0,1-5.09-5.08v-7.84a5.1,5.1,0,0,1,5.09-5.08H428.06" style="fill:#fff"/>
                <path d="M428.06,236l-216.4.8-108.2.3-54.11.15-27,.07-13.52,0H7.07A6.4,6.4,0,0,1,4.9,237a6.68,6.68,0,0,1-3.39-2.71,6.56,6.56,0,0,1-.86-2,9.28,9.28,0,0,1-.18-2v-6.76a8.72,8.72,0,0,1,.17-2,6.38,6.38,0,0,1,.86-2.05,6.64,6.64,0,0,1,3.4-2.75,6.54,6.54,0,0,1,2.19-.41H8.78l13.52,0L49.35,216l54.11-.19,54.1-.1,54.1.08c72.13.36,144.27.65,216.4,1.8v.4c-72.13,1.15-144.27,1.44-216.4,1.8l-54.1.08-54.1-.1-54.11-.19-27-.1-13.52,0H7.11A3.48,3.48,0,0,0,4.22,221a3.18,3.18,0,0,0-.44,1.06,4.74,4.74,0,0,0-.1,1.31l0,3.38v3.38a6,6,0,0,0,.09,1.32,3.25,3.25,0,0,0,.45,1.07A3.49,3.49,0,0,0,6,234a3.34,3.34,0,0,0,1.14.21H8.78l13.52,0,27.05.08,54.11.15,108.2.3,216.4.8Z"/>
                <g style="opacity:0.75;mix-blend-mode:multiply">
                    <text transform="translate(51.64 132.54)" style="font-size:106.24054718017578px;font-family:Masque">Luke Rebeiro</text>
                </g>
                <text transform="translate(45.64 130.54)" style="font-size:106.24054718017578px;fill:#ff1d25;font-family:Masque">Luke Rebeiro</text>
                <path d="M394.06,195.79H40.49a24.07,24.07,0,0,1-24-24" style="fill:#fff"/>
                <path d="M394.06,196l-97.81.8-97.8.6c-32.61.22-65.21.66-97.81.4-16.31-.21-32.61-.31-48.91-.61l-6.11-.12L42.56,197c-1,0-2,0-3.1-.12-.53,0-1.07-.06-1.6-.11l-1.57-.28-.79-.13-.77-.21-1.54-.43A24.55,24.55,0,0,1,27.47,193a24.9,24.9,0,0,1-8.4-9.2,24.3,24.3,0,0,1-2.78-12h.4a24.69,24.69,0,0,0,1,5.94,23.86,23.86,0,0,0,16.11,16l1.42.33.71.17.72.09,1.45.2,1.45,0c1,.06,2,0,3,0l3.06-.06,6.11-.11c16.3-.3,32.6-.4,48.91-.61,32.6-.26,65.2.18,97.81.4l97.8.6,97.81.8Z" style="fill:#ff1d25"/>
                <text transform="translate(46.24 171.81)" style="font-size:35.56184005737305px;font-family:Masque">Web Development</text>
                <path d="M2.3,2.08H385.6" style="fill:#fff"/>
                <path d="M2.3,1.88l95.82-.8L194,.48c31.94-.22,63.88-.66,95.83-.4s63.88.65,95.82,1.8v.4c-31.94,1.15-63.88,1.44-95.82,1.8S225.89,3.9,194,3.68l-95.83-.6L2.3,2.28Z"/>
                <path d="M16.31,17.65H370" style="fill:#fff"/>
                <path d="M16.31,17.45l88.43-.8,88.43-.6c29.48-.22,59-.66,88.43-.4s58.95.65,88.43,1.8v.4c-29.48,1.15-58.95,1.44-88.43,1.8s-59-.18-88.43-.4l-88.43-.6-88.43-.8Z" style="fill:#ff1d25"/>
                <line x1="16.06" y1="171.79" x2="16.06" y2="19.79" style="fill:#fff"/>
                <path d="M15.86,171.79l-.8-38-.6-38c-.17-12.67-.69-25.33-.4-38,.14-6.33.3-12.67.6-19s.66-12.67,1.2-19h.4q.82,9.5,1.21,19c.29,6.33.46,12.67.59,19,.3,12.67-.22,25.33-.4,38l-.6,38-.8,38Z" style="fill:#ff1d25"/>
            </g>
        </g>
    </g>
</svg>